<?xml version="1.0" standalone="no"?>
<!DOCTYPE svg PUBLIC "-//W3C//DTD SVG 20010904//EN"
 "http://www.w3.org/TR/2001/REC-SVG-20010904/DTD/svg10.dtd">
<svg version="1.0" xmlns="http://www.w3.org/2000/svg"
 width="1280.000000pt" height="1280.000000pt" viewBox="0 0 1280.000000 1280.000000"
 preserveAspectRatio="xMidYMid meet">
<metadata>
Created by potrace 1.15, written by Peter Selinger 2001-2017
</metadata>
<g transform="translate(0.000000,1280.000000) scale(0.100000,-0.100000)"
fill="#00bcd4" stroke="none">
<path d="M6085 12794 c-965 -61 -1761 -273 -2576 -685 -609 -308 -1145 -697
-1633 -1185 -1208 -1207 -1876 -2823 -1876 -4534 0 -113 3 -229 7 -259 l6 -53
59 148 c186 471 349 763 562 1011 367 426 878 634 1496 610 238 -10 392 -47
548 -133 263 -144 499 -432 668 -815 59 -135 154 -420 193 -579 34 -141 76
-359 70 -363 -5 -4 -638 -88 -660 -87 -12 0 -18 19 -27 78 -12 77 -54 255 -86
364 -31 103 -161 208 -319 256 -71 22 -102 25 -232 26 -170 1 -231 -11 -355
-70 -57 -27 -92 -53 -155 -117 -97 -99 -161 -217 -200 -371 -48 -191 -29 -507
46 -730 155 -464 523 -696 1108 -697 290 -1 454 62 629 240 180 183 299 417
567 1120 140 368 226 568 317 740 319 605 728 935 1295 1043 104 20 148 23
378 23 287 -1 347 -8 493 -65 400 -154 713 -592 907 -1266 51 -177 111 -463
103 -485 -4 -11 -69 -23 -259 -48 -140 -18 -258 -34 -263 -35 -5 0 -19 49 -31
109 -28 137 -46 189 -98 289 -82 156 -222 266 -397 313 -91 24 -329 24 -420 0
-223 -59 -380 -205 -469 -437 -52 -135 -64 -222 -58 -419 20 -620 304 -991
852 -1113 117 -26 434 -37 539 -18 291 51 501 242 696 631 84 167 139 297 275
655 146 381 205 524 289 699 322 666 722 1022 1286 1143 261 56 633 57 840 1
430 -116 788 -585 990 -1298 43 -156 100 -414 100 -460 l0 -27 -242 -32 c-134
-18 -251 -32 -260 -32 -12 0 -18 8 -18 25 0 19 -5 25 -22 25 -21 0 -25 9 -41
91 -46 236 -178 429 -352 510 -107 51 -176 63 -335 64 -121 0 -158 -4 -225
-23 -243 -70 -401 -246 -481 -537 -22 -80 -30 -318 -14 -443 79 -650 478 -983
1180 -983 191 -1 271 15 404 80 275 134 451 410 731 1146 243 641 346 866 512
1120 156 238 365 452 557 570 15 9 14 23 -13 155 -133 656 -374 1296 -704
1877 -803 1412 -2112 2469 -3659 2953 -417 131 -883 223 -1346 266 -158 14
-743 26 -877 18z"/>
<path d="M9680 7244 c-513 -42 -828 -280 -1109 -842 -89 -177 -140 -300 -289
-692 -235 -616 -349 -851 -532 -1095 -83 -111 -251 -274 -345 -337 -146 -96
-326 -168 -500 -200 -94 -17 -482 -17 -600 1 -384 57 -681 193 -917 420 -241
231 -391 520 -462 893 -41 213 -46 528 -11 693 57 272 174 507 341 684 96 102
183 168 304 230 186 96 358 134 608 134 l163 0 -38 25 c-66 45 -131 63 -261
73 -139 9 -315 -1 -437 -26 -237 -49 -462 -185 -623 -377 -189 -225 -323 -488
-537 -1053 -134 -354 -221 -567 -295 -720 -274 -567 -604 -867 -1065 -967
-118 -25 -397 -35 -560 -19 -327 32 -597 122 -835 279 -118 78 -299 260 -383
387 -205 311 -310 711 -294 1125 9 232 50 398 151 606 176 360 484 593 870
659 49 8 109 15 135 16 25 0 55 4 66 8 38 15 -213 24 -335 13 -295 -29 -491
-120 -685 -316 -211 -213 -349 -474 -605 -1146 -174 -460 -250 -637 -348 -817
l-49 -91 53 -184 c186 -647 499 -1301 887 -1858 750 -1074 1805 -1894 3027
-2350 1010 -377 2130 -490 3210 -324 1194 183 2309 703 3235 1508 148 129 461
442 592 592 962 1104 1499 2423 1584 3889 12 200 6 718 -9 799 l-7 38 -58 -68
c-196 -231 -329 -501 -608 -1234 -241 -633 -412 -937 -663 -1178 -251 -239
-516 -346 -891 -359 -748 -25 -1309 260 -1603 817 -89 169 -153 371 -189 596
-24 155 -24 476 1 599 85 427 321 765 654 936 95 49 233 94 355 116 96 17 366
23 422 10 l30 -7 -25 21 c-37 32 -120 68 -181 78 -63 11 -273 20 -339 15z"/>
</g>
</svg>
